<svg xmlns="http://www.w3.org/2000/svg" viewBox="0 0 125.99 125.99"><defs><style>.cls-1{fill:#fff}.cls-2{fill:#2c3033}</style></defs><g id="Layer_2" data-name="Layer 2"><g id="Layer_5" data-name="Layer 5"><path class="cls-1" d="M63 126a63 63 0 1 1 63-63 63.07 63.07 0 0 1-63 63z"/><path class="cls-1" d="M63 119.07A56.08 56.08 0 1 1 119.07 63 56.14 56.14 0 0 1 63 119.07z"/><path class="cls-2" d="M63 9.22A53.78 53.78 0 1 1 9.22 63 53.83 53.83 0 0 1 63 9.22m0-4.61A58.39 58.39 0 1 0 121.38 63 58.38 58.38 0 0 0 63 4.61z"/><path class="cls-2" d="M48.45 93.6V80.22a.76.76 0 0 0-.06-.26.7.7 0 0 0-.1-.16.67.67 0 0 0-.09-.14.87.87 0 0 0-.23-.16h-.07l-10.69-4.7h-.17a1.42 1.42 0 0 0-.2 0 .88.88 0 0 0-.33.06l-.12.08a1.88 1.88 0 0 0-.18.12 1 1 0 0 0-.14.21s-.05 0-.06.09a1.13 1.13 0 0 0 0 .18.72.72 0 0 0 0 .19V88.9a.44.44 0 0 0 0 .1 1 1 0 0 0 .05.25.7.7 0 0 0 .1.16.45.45 0 0 0 .1.14 1 1 0 0 0 .2.15l.09.06 10.66 4.67a.73.73 0 0 0 .3.06h.07a1 1 0 0 0 .33-.07H48a.86.86 0 0 0 .2-.13l.07-.06a1.27 1.27 0 0 0 .18-.27v-.18c0-.06-.01-.12 0-.18zM37.78 77.11l8.78 3.82v11.22l-8.78-3.85z"/><path class="cls-2" d="M96.52 77.6s-.08-.08-.14-.1l-11-4.8h10.74a1.17 1.17 0 0 0 .74-1.89l-21-18.43a.39.39 0 0 0-.11-.06.5.5 0 0 0-.12-.08L72 50.67s0-.09-.07-.13l-8.64-10.38V22.34a.95.95 0 0 0-1.89 0v17.77l-3.64 4.36L52 42a.89.89 0 0 0-.81 0 .8.8 0 0 0-.34.18L29.56 60.61a13 13 0 0 1-.33.49.94.94 0 0 0 .49 1.24L41 67.23H29.78a.94.94 0 0 0-.94.94.88.88 0 0 0 .06.29 1.07 1.07 0 0 0-.06.3v24.47a1.11 1.11 0 0 0 .05.25l.1.15a.78.78 0 0 0 .1.15.77.77 0 0 0 .21.14.71.71 0 0 0 .09.07l24 10.51a1 1 0 0 0 .38.08h42.4a1.23 1.23 0 0 0 1.07-1.06v-25a.94.94 0 0 0-.72-.92zm-25.08 6.28h9.45v18.82h-9.45zm11.34-.95a1 1 0 0 0-1-.94H70.49a.94.94 0 0 0-.94.94v19.77H54.43V79.55H95.3v23.15H82.78zM30.69 69.62l21.85 9.5v23l-21.85-9.61zm50.11 1.19H56.25l19-16.46L94 70.81H80.8zm-35-3.51l-3.41-1.49 15.88-19 15.16 6.59-19.88 17.25zM62.32 42l5.9 7-8.65-3.77zm-21.7 23l-8.84-3.84L51.72 43.9 56.5 46zm12.71 7.6a.94.94 0 0 0 .29.06H80.6l11.41 5H53.92l-19.58-8.52h10.94z"/><path class="cls-2" d="M65 82h-7.1a.94.94 0 0 0-.95.94v13.14a.94.94 0 0 0 .95 1H65a1 1 0 0 0 1-1V82.93a1 1 0 0 0-1-.93zm-1 1.88v11.26h-5.2V83.88zM92.78 82h-5.51a.94.94 0 0 0-1 .94v13.14a.94.94 0 0 0 1 1h5.51a.94.94 0 0 0 .94-1V82.93a.94.94 0 0 0-.94-.93zm-1 1.89v11.25h-3.57V83.88z"/></g></g></svg>