<svg xmlns="http://www.w3.org/2000/svg" viewBox="0 0 125.99 125.99"><defs><style>.cls-1{fill:#fff}.cls-2{fill:#2c3033}</style></defs><g id="Layer_2" data-name="Layer 2"><g id="Layer_5" data-name="Layer 5"><circle class="cls-1" cx="62.99" cy="62.99" r="62.99" transform="rotate(-45 62.99 62.988)"/><circle class="cls-1" cx="62.99" cy="62.99" r="56.08" transform="rotate(-45 62.99 62.988)"/><path class="cls-2" d="M63 9.22A53.78 53.78 0 1 1 9.22 63 53.83 53.83 0 0 1 63 9.22m0-4.61A58.39 58.39 0 1 0 121.38 63 58.38 58.38 0 0 0 63 4.61z"/><path class="cls-2" d="M97.19 36.91a8.12 8.12 0 0 0-16.23 0H30a1.16 1.16 0 0 0-1.16 1.16V96A1.16 1.16 0 0 0 30 97.19h59.14a8.06 8.06 0 0 0 8-8V36.91zm-13.91 0a5.8 5.8 0 0 1 11.59 0v46.48A8.29 8.29 0 0 0 93 81.94h-.12l-.59-.29-.29-.14a4.68 4.68 0 0 0-.48-.18l-.38-.1c-.13 0-.27-.08-.4-.1a4.67 4.67 0 0 0-.52-.08h-.29a7.75 7.75 0 0 0-.84 0 8.08 8.08 0 0 0-5.79 2.43V36.91zM31.12 74h11.54a12.74 12.74 0 0 1-11.54 11.54zm58 20.87h-12.8V82.12A1.16 1.16 0 0 0 75.16 81h-8.11v-1.2a1.16 1.16 0 0 0-2.32 0v4.64a1.16 1.16 0 0 0 2.32 0v-1.16h7v11.59H48.5V83.28h7v1.16a1.16 1.16 0 1 0 2.32 0V79.8a1.16 1.16 0 0 0-2.32 0V81h-8.15a1.16 1.16 0 0 0-1.16 1.16v12.71H31.12v-7A15.06 15.06 0 0 0 45 72.85a1.16 1.16 0 0 0-1.16-1.16H31.12v-4.64h15.07a1.16 1.16 0 0 0 1.16-1.16v-8.11h1.15a1.16 1.16 0 0 0 0-2.32h-4.63a1.16 1.16 0 1 0 0 2.32H45v7H31.12V39.23H45v7h-1.13a1.16 1.16 0 1 0 0 2.31h4.63a1.16 1.16 0 1 0 0-2.31h-1.15v-7h5.79V52a1.16 1.16 0 0 0 1.16 1.16h4.64v1.14a1.16 1.16 0 1 0 2.31 0v-4.64a1.16 1.16 0 1 0-2.31 0v1.16h-3.48V39.23h19.7v11.59h-4.63v-1.16a1.16 1.16 0 1 0-2.32 0v4.64a1.16 1.16 0 1 0 2.32 0v-1.16h5.79A1.16 1.16 0 0 0 77.48 52V39.23H81v49.84a1.16 1.16 0 1 0 2.32 0 5.8 5.8 0 1 1 5.86 5.8z"/></g></g></svg>