<svg xmlns="http://www.w3.org/2000/svg" viewBox="0 0 125.99 125.99"><defs><style>.cls-1{fill:#fff}.cls-2{fill:#2c3033}</style></defs><g id="Layer_2" data-name="Layer 2"><g id="Layer_5" data-name="Layer 5"><circle class="cls-1" cx="62.99" cy="62.99" r="62.99" transform="rotate(-45 62.99 62.988)"/><circle class="cls-1" cx="62.99" cy="62.99" r="56.08" transform="rotate(-45 62.99 62.988)"/><path class="cls-2" d="M63 9.22A53.78 53.78 0 1 1 9.22 63 53.83 53.83 0 0 1 63 9.22m0-4.61A58.39 58.39 0 1 0 121.38 63 58.38 58.38 0 0 0 63 4.61z"/><path class="cls-2" d="M52.4 87.77H50V85a11.78 11.78 0 0 0 5.9-10.2v-7.09a5.91 5.91 0 0 0-4.72-5.78v-3.66A1.18 1.18 0 0 0 50 57.09h-7a10.63 10.63 0 0 0-10.66 10.62v7.16A11.8 11.8 0 0 0 38.24 85v2.78h-2.36a7.08 7.08 0 0 0-7.08 7.08v3.54a2.36 2.36 0 0 0 2.36 2.36h26a2.36 2.36 0 0 0 2.36-2.36v-3.55a7.09 7.09 0 0 0-7.12-7.08zM43 59.45h5.9V63a1.17 1.17 0 0 0 1.1 1.17 3.55 3.55 0 0 1 3.54 3.54v1.35l-1.7-1.15-.17-.06-.18-.08h-.45a1.25 1.25 0 0 0-.26.07h-.12a14.94 14.94 0 0 1-6 1.06 26.29 26.29 0 0 1-7.3-1.12h-.08a1.74 1.74 0 0 0-.45 0 1.66 1.66 0 0 0-.21.06.88.88 0 0 0-.22.1h-.07l-1.7 1.15v-1.38A8.27 8.27 0 0 1 43 59.45zm-8.3 15.34v-2.88l2.56-1.73a28.46 28.46 0 0 0 7.47 1.07 18.23 18.23 0 0 0 6.35-1l2.5 1.69v2.88a9.44 9.44 0 0 1-18.88 0zm9.44 11.8a11.86 11.86 0 0 0 3.54-.54v2.17l-1.18.59-1.83-.92h-.08a1.05 1.05 0 0 0-.24-.06 1.52 1.52 0 0 0-.21 0 1.81 1.81 0 0 0-.23 0 1.66 1.66 0 0 0-.21.06h-.09l-1.83.92-1.18-.59v-2.17a11.81 11.81 0 0 0 3.54.54zm-8.26 3.54h3.26l2.11 1.06a1.29 1.29 0 0 0 .47.11 1.45 1.45 0 0 0 .29 0h.1a.39.39 0 0 0 .14 0l1.83-.91 1.83.92H46a1.29 1.29 0 0 0 .47.11 1.45 1.45 0 0 0 .29 0h.1a.35.35 0 0 0 .13 0l2.11-1.05h3.3a4.73 4.73 0 0 1 4.72 4.72v3.54h-26v-3.78a4.73 4.73 0 0 1 4.76-4.72zm54.23-2.36h-2.36V85a11.78 11.78 0 0 0 5.9-10.2v-5.32A12.32 12.32 0 0 0 91.13 62a.64.64 0 0 0-.1-.13 12.37 12.37 0 0 0-22.16 7.58.8.8 0 0 0 0 .15.87.87 0 0 0 0 .22 1 1 0 0 0 .09.21l.12.17a.91.91 0 0 0 .17.17 1.08 1.08 0 0 0 .18.11.92.92 0 0 0 .23.09l.13.05h.18v4.07A11.78 11.78 0 0 0 76 85v2.78h-2.41a7.09 7.09 0 0 0-7.08 7.08v3.54a2.36 2.36 0 0 0 2.36 2.36h26a2.36 2.36 0 0 0 2.36-2.36v-3.55a7.09 7.09 0 0 0-7.12-7.08zm1-20a6.42 6.42 0 0 0-2.37-1.29l1.3-1.82a9.89 9.89 0 0 1 1.09 3.13zm-9.87-8.34a10 10 0 0 1 7.34 3.22l-2.71 3.77a21.89 21.89 0 0 0-2.66.74 25 25 0 0 1-11.94 1.26 10 10 0 0 1 9.99-8.97zm-8.83 15.36V71A26.83 26.83 0 0 0 84 69.43c3.34-1.08 4.65-1.49 7.34 1.9v3.46a9.44 9.44 0 0 1-18.88 0zm9.44 11.8a11.86 11.86 0 0 0 3.54-.54v2.17l-1.18.59-1.83-.92h-.08a1.05 1.05 0 0 0-.24-.06 1.52 1.52 0 0 0-.21 0h-.23a1.66 1.66 0 0 0-.21.06h-.09l-1.83.92-1.18-.59v-2.17a11.86 11.86 0 0 0 3.54.54zm-8.26 3.54h3.26L79 91.19a1.2 1.2 0 0 0 .47.11 1.35 1.35 0 0 0 .29 0h.1a.39.39 0 0 0 .14 0l1.83-.91 1.83.92h.06a1.2 1.2 0 0 0 .46.11 1.35 1.35 0 0 0 .29 0h.1a.39.39 0 0 0 .14 0l2.11-1.05h3.26a4.73 4.73 0 0 1 4.72 4.72v3.54h-26v-3.78a4.73 4.73 0 0 1 4.79-4.72zM41.78 48.84h2.36V50a1.16 1.16 0 0 0 .52 1 1.13 1.13 0 0 0 .66.21 1.15 1.15 0 0 0 .44-.09l5.68-2.27h3.29v3.54a1.17 1.17 0 0 0 1.18 1.17h13.93l5.69 2.28a1.11 1.11 0 0 0 .44.08 1.19 1.19 0 0 0 .66-.2 1.16 1.16 0 0 0 .52-1v-1.17h7.08a1.17 1.17 0 0 0 1.18-1.17v-26a1.18 1.18 0 0 0-1.18-1.18H55.91a1.18 1.18 0 0 0-1.18 1.18V30H41.78a1.18 1.18 0 0 0-1.18 1.18v16.48a1.18 1.18 0 0 0 1.18 1.18zM83.05 27.6v23.6H76a1.18 1.18 0 0 0-1.18 1.18V53l-4.28-1.71a1.11 1.11 0 0 0-.44-.08h-13v-3.45a.54.54 0 0 0 0-.1.45.45 0 0 0 0-.11V31.24a.29.29 0 0 0 0-.1.45.45 0 0 0 0-.11V27.6zM43 32.32h11.73v14.16h-3.51a1.11 1.11 0 0 0-.44.08l-4.28 1.71v-.61a1.18 1.18 0 0 0-1.18-1.18H43z"/><path class="cls-2" d="M61.81 39.4a1.18 1.18 0 0 0 .69-.22l.49-.36v6.48a1.18 1.18 0 0 0 0 2.36h14.16a1.18 1.18 0 0 0 0-2.36v-6.48l.5.36a1.13 1.13 0 0 0 .68.22 1.19 1.19 0 0 0 1-.5 1.17 1.17 0 0 0-.33-1.64l-8.26-5.9a.94.94 0 0 0-.23-.1l-.19-.08a1.61 1.61 0 0 0-.22 0 .87.87 0 0 0-.23 0 .62.62 0 0 0-.19.07 1.22 1.22 0 0 0-.24.1l-4 2.88v-1.91a1.18 1.18 0 1 0-2.36 0v3.6l-1.86 1.34a1.18 1.18 0 0 0-.28 1.64 1.2 1.2 0 0 0 .87.5zm8.26-5.63l4.72 3.37v8.16h-3.54v-2.36a1.18 1.18 0 0 0-2.36 0v2.36h-3.54v-8.16z"/></g></g></svg>