<svg xmlns="http://www.w3.org/2000/svg" viewBox="0 0 427.47 53.92"><defs><style>.cls-1{fill:#2c3033}.cls-2{fill:#fff}</style></defs><g id="Layer_2" data-name="Layer 2"><g id="Layer_5" data-name="Layer 5"><rect class="cls-1" x="2.48" y="2.48" width="122.9" height="48.95" rx="6.67" ry="6.67"/><path class="cls-2" d="M118.71 2.48a6.67 6.67 0 0 1 6.67 6.67v35.62a6.67 6.67 0 0 1-6.67 6.67H9.15a6.67 6.67 0 0 1-6.67-6.67V9.15a6.67 6.67 0 0 1 6.67-6.67h109.56m0-2.48H9.15A9.15 9.15 0 0 0 0 9.15v35.62a9.16 9.16 0 0 0 9.15 9.15h109.56a9.16 9.16 0 0 0 9.15-9.15V9.15A9.15 9.15 0 0 0 118.71 0z"/><path class="cls-2" d="M37.62 21.34h-.89a14.31 14.31 0 0 0-4-7.56 9.88 9.88 0 0 0-7-2.69 8.29 8.29 0 0 0-7.15 3.79Q16 18.68 16 25.08q0 7.13 3.1 11A10.28 10.28 0 0 0 27.59 40 11.94 11.94 0 0 0 33 38.8a18 18 0 0 0 5-3.9v1.69a15.28 15.28 0 0 1-13 6.57 16.35 16.35 0 0 1-12-4.59 16.06 16.06 0 0 1-4.63-11.9A17.05 17.05 0 0 1 25.65 9.26a21.08 21.08 0 0 1 6.86 1.34 8.18 8.18 0 0 0 2.23.6c.79 0 1.46-.56 2-1.67h.89zm29.46 9.72a11.29 11.29 0 0 1-3.46 8.51 12.21 12.21 0 0 1-8.85 3.34A12.14 12.14 0 0 1 46 39.57a11.35 11.35 0 0 1-3.44-8.51A11.39 11.39 0 0 1 46 22.53a12.16 12.16 0 0 1 8.81-3.35 12.22 12.22 0 0 1 8.85 3.35 11.36 11.36 0 0 1 3.42 8.53zm-5.4.15q0-5.25-1.76-8a6.16 6.16 0 0 0-10.26 0c-1.16 1.83-1.75 4.51-1.75 8q0 4.92 1.77 7.65a5.71 5.71 0 0 0 5.09 2.73 5.8 5.8 0 0 0 5.08-2.71q1.83-2.67 1.83-7.67zm29.51 5.22h.7l-1 5.89H69.52v-.66L84.76 21h-8.54a4.68 4.68 0 0 0-3.15.92 8.21 8.21 0 0 0-1.93 3.47h-.66l.66-5.67h20v.62L76 41h8.79a6.51 6.51 0 0 0 3.9-.94 9.45 9.45 0 0 0 2.5-3.63zm22.61-13.58l-5.33 7.59v8.06a3.25 3.25 0 0 0 .6 2.18 3.91 3.91 0 0 0 2.26 1v.66h-10.7v-.66a3.51 3.51 0 0 0 2.22-1 3.5 3.5 0 0 0 .65-2.34v-6.58l-5.86-9A7.14 7.14 0 0 0 96.12 21a3.52 3.52 0 0 0-1.68-.58v-.66h10.28v.66c-1.09 0-1.64.42-1.64 1.09a3.34 3.34 0 0 0 .64 1.64l3.9 6 3.43-4.95a3.79 3.79 0 0 0 .81-2.08c0-.87-.58-1.45-1.73-1.73v-.66h7v.66c-1.19.14-2.29.95-3.33 2.46z"/><path class="cls-1" d="M160 36.16v-9.49h-15.47v10.19a4.71 4.71 0 0 0 .75 3.06 6.65 6.65 0 0 0 3.2 1.46v.94h-15.15v-.94a9.83 9.83 0 0 0 2.57-.94 2.82 2.82 0 0 0 1.19-1.31 8.82 8.82 0 0 0 .33-3V15.55a4.54 4.54 0 0 0-.79-3.05 6.77 6.77 0 0 0-3.3-1.47v-.94h15.15V11a6.15 6.15 0 0 0-3.15 1.44 4.19 4.19 0 0 0-.8 2.84v9H160v-8.8a4.6 4.6 0 0 0-.78-3.05A6.69 6.69 0 0 0 156 11v-.94h15.23V11a7.19 7.19 0 0 0-3.34 1.52c-.5.57-.75 1.8-.75 3.7v20.64a4.56 4.56 0 0 0 .78 3 6.75 6.75 0 0 0 3.31 1.49v.94H156v-.94a6.27 6.27 0 0 0 3.19-1.46c.53-.59.81-1.84.81-3.73zm36.63-5.1a11.3 11.3 0 0 1-3.47 8.51 13.34 13.34 0 0 1-17.66 0 11.32 11.32 0 0 1-3.45-8.51 11.36 11.36 0 0 1 3.46-8.53 13.3 13.3 0 0 1 17.65 0 11.37 11.37 0 0 1 3.47 8.53zm-5.41.15c0-3.5-.58-6.17-1.76-8a6.15 6.15 0 0 0-10.25 0q-1.76 2.74-1.75 8 0 4.92 1.77 7.65a5.69 5.69 0 0 0 5.08 2.73 5.83 5.83 0 0 0 5.09-2.71q1.82-2.67 1.82-7.67zM229 19.76v.66a3.62 3.62 0 0 0-2 .88 2.44 2.44 0 0 0-.63 1.8 7.13 7.13 0 0 0 .07 1l2 14.09a4.08 4.08 0 0 0 1.05 2.37 4.36 4.36 0 0 0 2.4 1.13v.66h-11.14v-.66a3.56 3.56 0 0 0 2-1.11 3.39 3.39 0 0 0 .6-2.16 12.92 12.92 0 0 0-.13-1.7l-1.85-12.88L214 42.32h-.81l-7.32-18.51-2 13.26a9.5 9.5 0 0 0-.11 1.43c0 2 .92 3 2.76 3.16v.66h-8.17v-.66a3.43 3.43 0 0 0 2.65-1.19 8.17 8.17 0 0 0 1.32-3.78L204.58 22a4.67 4.67 0 0 0-3.28-1.54v-.66h8.16l5.89 14.88 6-14.88zm21.07 7.78h.73v7h-.73q-.4-2.88-3.13-2.88h-4v6.62a2.79 2.79 0 0 0 .69 2.15 3.57 3.57 0 0 0 2.39.62h1.31q3.31 0 4.74-4.2h.66l-.42 5.48h-17.14v-.66a4 4 0 0 0 2.26-1 4.2 4.2 0 0 0 .57-2.59V23.55a3.24 3.24 0 0 0-.58-2.2 4.33 4.33 0 0 0-2.25-.93v-.66h16.91v5h-.66a6 6 0 0 0-1.4-3 3.9 3.9 0 0 0-2.68-.77H243v9.32h4a3 3 0 0 0 2.07-.64 4.08 4.08 0 0 0 1-2.13zm33.31 14.78h-16.66v-.81a4.87 4.87 0 0 0 2.81-1.25 4.19 4.19 0 0 0 .65-2.62V19.25a4 4 0 0 0-.72-2.69 4.6 4.6 0 0 0-2.74-1.09v-.81h14.58a12.29 12.29 0 0 1 7 1.7 5.43 5.43 0 0 1 2.52 4.79q0 4.8-6.15 6.51v.09q7.86 1.44 7.86 7.3a6.41 6.41 0 0 1-2.5 5.26 10.25 10.25 0 0 1-6.65 2.01zm-7.1-26.09v11.11h2.24a5.7 5.7 0 0 0 4.16-1.48 5.52 5.52 0 0 0 1.5-4.11q0-5.52-6.1-5.52zm3.28 12.65h-3.28v8.48a3.25 3.25 0 0 0 .93 2.62 4.79 4.79 0 0 0 3.09.77 5.4 5.4 0 0 0 4.1-1.56 6 6 0 0 0 1.49-4.3 5.84 5.84 0 0 0-1.68-4.37 6.36 6.36 0 0 0-4.65-1.64zm31.78 13.44v-2.58a12.85 12.85 0 0 1-3.09 2.43 7 7 0 0 1-3.15.65 6.68 6.68 0 0 1-4.84-1.74 6.23 6.23 0 0 1-1.8-4.69V26.24a2.75 2.75 0 0 0-.46-1.84 4 4 0 0 0-2-.88V23h9.18v.56a3.93 3.93 0 0 0-2 .88 3 3 0 0 0-.49 2v10.79a3.84 3.84 0 0 0 1 2.79 3.51 3.51 0 0 0 2.66 1q2.4 0 5-2.68v-12.1a2.72 2.72 0 0 0-.47-1.83 4.15 4.15 0 0 0-2-.89V23H318v.56a3.7 3.7 0 0 0-1.92.85 3.52 3.52 0 0 0-.51 2.26V39a2.76 2.76 0 0 0 .47 1.83 4.1 4.1 0 0 0 2 .89v.56zM330.36 23v.56a3.81 3.81 0 0 0-1.93.87 3.51 3.51 0 0 0-.5 2.24V39a2.76 2.76 0 0 0 .47 1.83 4.1 4.1 0 0 0 2 .89v.56h-9.15v-.56a5.91 5.91 0 0 0 1.54-.57 1.64 1.64 0 0 0 .71-.77 5.21 5.21 0 0 0 .2-1.8V26.24a2.75 2.75 0 0 0-.47-1.84 4.07 4.07 0 0 0-2-.88V23zm12.46 0v.56a4.29 4.29 0 0 0-2 .89 2.52 2.52 0 0 0-.45 1.68v13.01a1.85 1.85 0 0 0 .64 1.65 4.64 4.64 0 0 0 2.41.43 4.56 4.56 0 0 0 2.89-.81 9.22 9.22 0 0 0 2.14-3.11h.55l-.57 5h-14.76v-.56a4 4 0 0 0 2-.92 3.83 3.83 0 0 0 .44-2.22V26.24a2.81 2.81 0 0 0-.47-1.84 4 4 0 0 0-1.95-.88V23zm8.68 19.32v-.56a4.35 4.35 0 0 0 2-.93 3.55 3.55 0 0 0 .46-2.21V26.27a2.78 2.78 0 0 0-.46-1.83 4.26 4.26 0 0 0-2-.92V23h9.91c3.59 0 6.44.91 8.52 2.73a9.07 9.07 0 0 1 3.13 7.19 8.85 8.85 0 0 1-2.8 6.87 10.69 10.69 0 0 1-7.56 2.57zm9.24-18.26h-2.52v14.88a2 2 0 0 0 .73 1.77 4.33 4.33 0 0 0 2.42.51 6.38 6.38 0 0 0 5.21-2.22 9.62 9.62 0 0 0 1.84-6.3 9.25 9.25 0 0 0-2-6.31 7.09 7.09 0 0 0-5.68-2.33zm25.93 5.57h.63v6h-.63a2.49 2.49 0 0 0-2.67-2.47h-3.42v5.69a2.38 2.38 0 0 0 .6 1.84 3.06 3.06 0 0 0 2.05.53h1.13c1.89 0 3.25-1.2 4.06-3.6h.58l-.36 4.7h-14.76v-.56a3.58 3.58 0 0 0 1.95-.88 3.69 3.69 0 0 0 .48-2.23V26.21a2.76 2.76 0 0 0-.5-1.89 3.69 3.69 0 0 0-1.93-.8V23h14.52v4.3h-.57a5.29 5.29 0 0 0-1.2-2.55 3.41 3.41 0 0 0-2.31-.65h-3.75v8H384a2.56 2.56 0 0 0 1.77-.56 3.48 3.48 0 0 0 .9-1.91zm4.97 12.69v-.56c1.64-.13 2.46-1 2.46-2.48V26.17a2.61 2.61 0 0 0-.51-1.85 3.81 3.81 0 0 0-1.95-.8V23h9.22a10.18 10.18 0 0 1 5.57 1.27 4.08 4.08 0 0 1 1.94 3.59 4.24 4.24 0 0 1-1 2.86 5.79 5.79 0 0 1-2.9 1.75v.07a3 3 0 0 1 1.47 1.12 26.84 26.84 0 0 1 2.3 3.77 20.28 20.28 0 0 0 2.14 3.46 3 3 0 0 0 1.84.91v.56h-5.59a26.45 26.45 0 0 1-2.82-4.7 26.73 26.73 0 0 0-1.75-3.12 3.62 3.62 0 0 0-1.2-1.09 6.35 6.35 0 0 0-2.48-.32V39a2.78 2.78 0 0 0 .56 1.9 3.13 3.13 0 0 0 1.93.82v.56zm8.05-18.26h-1.32V32h.94a4.83 4.83 0 0 0 3.37-1 4.15 4.15 0 0 0 1.05-3.14c0-2.53-1.34-3.8-4.04-3.8zm26.65-1.6v5.1h-.57a6.15 6.15 0 0 0-1.94-2.85 4.4 4.4 0 0 0-2.83-1.15 3.42 3.42 0 0 0-2.25.76 2.3 2.3 0 0 0-.93 1.85 2.53 2.53 0 0 0 .25 1.06 3.22 3.22 0 0 0 .7 1 26.66 26.66 0 0 0 3 2A35.1 35.1 0 0 1 425 32.4a8.44 8.44 0 0 1 1.44 1.6 5.51 5.51 0 0 1 1 3.22 5 5 0 0 1-1.82 4.11 6.6 6.6 0 0 1-4.4 1.52 13.24 13.24 0 0 1-3.32-.5 7 7 0 0 0-1.42-.26 1 1 0 0 0-1 .64H415v-5.87h.57a6.35 6.35 0 0 0 1.81 3.56 4.71 4.71 0 0 0 3.38 1.31 4.09 4.09 0 0 0 2.56-.78 2.4 2.4 0 0 0 1-2 3 3 0 0 0-.65-1.84 13.89 13.89 0 0 0-3.46-2.54 19.09 19.09 0 0 1-3.43-2.39 5.74 5.74 0 0 1-1.27-1.88 5.87 5.87 0 0 1-.42-2.21 5.35 5.35 0 0 1 1.7-4.08 6.22 6.22 0 0 1 4.38-1.58 9.06 9.06 0 0 1 2 .27 9 9 0 0 0 1.64.26 1.48 1.48 0 0 0 1-.53z" id="HomeBuilders"/></g></g></svg>