<svg xmlns="http://www.w3.org/2000/svg" viewBox="0 0 125.99 125.99"><defs><style>.cls-1{fill:#fff}.cls-2{fill:#2c3033}</style></defs><g id="Layer_2" data-name="Layer 2"><g id="Layer_5" data-name="Layer 5"><circle class="cls-1" cx="62.99" cy="62.99" r="62.99"/><circle class="cls-1" cx="62.99" cy="62.99" r="56.08"/><path class="cls-2" d="M63 9.22A53.78 53.78 0 1 1 9.22 63 53.83 53.83 0 0 1 63 9.22m0-4.61A58.39 58.39 0 1 0 121.38 63 58.38 58.38 0 0 0 63 4.61z"/><path class="cls-2" d="M75.76 62.16V45.69a.93.93 0 0 0-.64-.89l-6.9-2.3-4.78-7a.8.8 0 0 0-.15-.17v-4.96a.94.94 0 1 0-1.87 0v5.82l-3.2 5-10.73 3.29a.94.94 0 0 0-.66.88v16.33a.92.92 0 0 0 .65.89L61 67a.84.84 0 0 0 .27 0h.26l13.52-3.9a.93.93 0 0 0 .71-.94zM56.48 47.3L58 45l7.58 2.63-4.26 1.33zm3.88 17.48L56 63.36V49.11l4.38 1.47zM48.7 46.67l5.4 1.81v14.28L48.7 61zm2.12-1.26L55.28 44l.89.3-1.52 2.36zm14.47-3.89l-3.7-1.23a.92.92 0 0 0-.57 0l1.68-2.61zm6.48 4.14l-3.69 1.15-9.22-3.2.57-.87 1.86-.58zm2.12 15.8l-11.66 3.36V50.59L73.89 47z"/><path class="cls-2" d="M65.38 51.82a.78.78 0 0 0 .74.55.59.59 0 0 0 .23 0l4.09-1.26a.78.78 0 0 0-.44-1.53l-4.08 1.26a.78.78 0 0 0-.54.98zM28.8 67.63a1 1 0 0 0 .61 1l5.2 1.93c-1.63 1.65-1.56 4.58-1.56 4.73a.94.94 0 0 0 .94.91.94.94 0 0 0 .9-1s-.06-3.37 1.9-3.84l28 10.42a1.92 1.92 0 0 0 .66.12 2.21 2.21 0 0 0 .37 0l1.18-.27v4.89a1.35 1.35 0 0 0 .58 1.11l.24.16a1 1 0 0 0 1 .1 1 1 0 0 0 .6-.79 2.34 2.34 0 0 1 .69-1.56.73.73 0 0 1 .65 0l2.5 1.15c1.55.88 2.12 4.34 2.15 7a1.37 1.37 0 0 0 .83 1.31l2.82 1.18a6.91 6.91 0 0 0 2.17.38 4.07 4.07 0 0 0 1.22-.17c10-1.74 13.66-4.89 13.81-5l.29-.26V83.4l.15-.07s.49-.2.49-1.09c0 0-.49-13.43-2.36-15.74l-11.19-4-14.77 4s-1.34.65-1.38 1.82v2.14l-21.4-6.74a1 1 0 0 0-.58-.08l-15.95 3.15a.94.94 0 0 0-.76.84zm38.77 13.24zm28 1a.38.38 0 0 1-.23.37l-.83.38-.42.2a.72.72 0 0 0-.41.53l-.06.46a.21.21 0 0 1-.16.18l-8 2.53a.45.45 0 0 1-.34 0 .42.42 0 0 1-.21-.26.13.13 0 0 0-.13-.1H81.5a3.88 3.88 0 0 1-1.35-.24l-2-.76a1.38 1.38 0 0 1-.69-.57 6.82 6.82 0 0 0-2-2 11.61 11.61 0 0 0-1.82-1h-.06l-4.72-1.89.19-11.33a1.13 1.13 0 0 1 .42-.42l14.1-3.79 10.22 3.62c.28.65.87 2.52 1.37 7.6.27 2.8.4 5.45.45 6.47zm-26.9 2.62v-3.18L73.05 83s3 1.3 3.41 3.16l4.05 1.54h3.21s.16.57 1.13.57a4.14 4.14 0 0 0 .45 0l9.53-3v2.51l-.77.35a.16.16 0 0 0-.1.11l-.3 1.06a.18.18 0 0 0 .24.21l.93-.42v1.27c-1 .72-4.8 3-12.75 4.42h-.17a4 4 0 0 1-2.29-.2L77.1 93.5c0-2.19-.44-6.9-3-8.33h-.06l-2.64-1.2a2.39 2.39 0 0 0-2.14.13 2.2 2.2 0 0 0-.55.37zM33.17 68l12.41-2.46 21.84 6.89-.12 7.24-1.79.33z"/><path class="cls-2" d="M94 75.67a27 27 0 0 0-.73-4.8.49.49 0 0 0-.23-.3.5.5 0 0 0-.38 0c-3.17 1-9.24 2.67-10.91 3.13a.48.48 0 0 0-.34.56l1 4.61a.47.47 0 0 0 .55.37 46.13 46.13 0 0 0 10.81-3.07.45.45 0 0 0 .23-.5zM79.5 79a.49.49 0 0 0 .18-.4l-.29-5a.47.47 0 0 0-.34-.42l-3.9-1.23a.48.48 0 0 0-.62.45V76a.48.48 0 0 0 .31.45l1.33.5a2.54 2.54 0 0 1 2 1.95l.86.25a.48.48 0 0 0 .47-.15z"/><ellipse class="cls-2" cx="71.85" cy="91.68" rx=".58" ry=".89" transform="rotate(-11.88 71.872 91.709)"/><path class="cls-2" d="M69.18 92.24c.52 2.47 2.16 4.21 3.67 3.89s2.32-2.57 1.8-5-2.16-4.2-3.67-3.88-2.32 2.53-1.8 4.99zM71.29 89c1-.21 2 .84 2.35 2.35s-.23 2.88-1.21 3.09-2-.84-2.35-2.34.22-2.93 1.21-3.1zm14.39 1.6l.32 1.46a.18.18 0 0 0 .05.07.14.14 0 0 0 .09 0l6.72-2.3a.17.17 0 0 0 .11-.12l.37-1.47a.21.21 0 0 0 0-.17.2.2 0 0 0-.18 0l-7.35 2.44a.1.1 0 0 0-.13.09zm-4.57 1.17v1a.16.16 0 0 0 .14.16 14.42 14.42 0 0 0 3.89-.49.08.08 0 0 0 .07 0 .1.1 0 0 0 0-.09L85 91.27a.18.18 0 0 0-.08-.11.16.16 0 0 0-.12 0 10.32 10.32 0 0 1-3.46.46.14.14 0 0 0-.12 0 .16.16 0 0 0-.06.12z"/><ellipse class="cls-2" cx="45.72" cy="80.2" rx=".55" ry=".84" transform="rotate(-11.89 45.762 80.239)"/><path class="cls-2" d="M43.19 80.73c.49 2.33 2 4 3.47 3.68s2.19-2.44 1.7-4.77-2-4-3.47-3.67-2.19 2.43-1.7 4.76zm2-3.1c.93-.2 1.92.8 2.22 2.22s-.21 2.73-1.14 2.92S44.34 82 44 80.56s.25-2.74 1.18-2.93z"/><ellipse class="cls-2" cx="38.98" cy="77.5" rx=".52" ry=".8" transform="rotate(-11.88 39.006 77.505)"/><path class="cls-2" d="M36.59 78c.46 2.2 1.94 3.76 3.29 3.47s2.07-2.3 1.6-4.5-1.93-3.76-3.28-3.48-2.07 2.31-1.61 4.51zm1.88-2.94c.88-.18 1.83.76 2.11 2.1s-.2 2.58-1.08 2.77-1.82-.76-2.11-2.1.2-2.57 1.08-2.76zm11.22 3.99a.93.93 0 0 0 .51 1.22L64 85.82a.84.84 0 0 0 .35.07.94.94 0 0 0 .35-1.81l-13.8-5.55a.92.92 0 0 0-1.21.52z"/></g></g></svg>