<svg xmlns="http://www.w3.org/2000/svg" viewBox="0 0 125.99 125.99"><defs><style>.cls-1{fill:#fff}.cls-2{fill:#2c3033}</style></defs><g id="Layer_2" data-name="Layer 2"><g id="Layer_5" data-name="Layer 5"><circle class="cls-1" cx="62.99" cy="62.99" r="62.99" transform="rotate(-45 62.99 62.988)"/><circle class="cls-1" cx="62.99" cy="62.99" r="56.08" transform="rotate(-45 62.99 62.988)"/><path class="cls-2" d="M63 9.22A53.78 53.78 0 1 1 9.22 63 53.83 53.83 0 0 1 63 9.22m0-4.61A58.39 58.39 0 1 0 121.38 63 58.38 58.38 0 0 0 63 4.61z"/><path class="cls-2" d="M91 52v-.07a1 1 0 0 0-.48-1L54.1 30.07a1.23 1.23 0 0 0-.25-.14L36.44 20h-.12a1.14 1.14 0 0 0-.32-.07h-.12a.87.87 0 0 0-.22.05 1 1 0 0 0-.21.1l-.08.06a1 1 0 0 0-.23.26 1 1 0 0 0-.16.49v52.79A.82.82 0 0 0 35 74a1 1 0 0 0 .45 1.07l35.09 20.05a1 1 0 0 0 .44.25L89.57 106a.94.94 0 0 0 .48.13 1 1 0 0 0 .85-.49.93.93 0 0 0 .1-.64.8.8 0 0 0 0-.15zm-2 9.57l-3.1-1.84v-9.21l3.18 1.82zm-5-2.96l-4.89-2.79v-9.21L84 49.4zm-6.9-3.91l-4.88-2.8v-9.21l4.88 2.8zm-6.84-13.11v9.19l-7.45-4.26v-9.21l7.46 4.27zm-9.4-4.88v8.69l-6.36-3.63v-9.21l6.5 3.7a1 1 0 0 0-.14.45zm0 35.57l-15.4-8.8V38.85l15.4 8.8zm-8.31-31.63l-7.09-4.06v-9.21l7.09 4.06zm-9-5.18l-6.6-3.77v-9.21l6.6 3.77zM36.91 34l6.6 3.78V77.4l-6.6-3.77zm8.55 31.78l7.09 4v12.79l-7.09-4zm9 5.17l6.32 3.62v12.8l-6.28-3.68zm8.31 17.44V48.77L70.26 53v39.71l-7.47-4.27s.02-.07.02-.1zm9.41-34.18L84 60.87v39.67l-11.78-6.71zM85.9 62l3.18 1.82v39.68l-3.18-1.82z"/></g></g></svg>