<svg xmlns="http://www.w3.org/2000/svg" viewBox="0 0 125.99 125.99"><defs><style>.cls-1{fill:#fff;}.cls-2{fill:#2c3033;}</style></defs><title>build</title><g id="Layer_2" data-name="Layer 2"><g id="Layer_5" data-name="Layer 5"><circle class="cls-1" cx="62.99" cy="62.99" r="62.99" transform="translate(-26.09 62.99) rotate(-45)"/><circle class="cls-1" cx="62.99" cy="62.99" r="56.08" transform="translate(-26.09 62.99) rotate(-45)"/><path class="cls-2" d="M63,9.22A53.78,53.78,0,1,1,9.22,63,53.83,53.83,0,0,1,63,9.22m0-4.61A58.39,58.39,0,1,0,121.38,63,58.38,58.38,0,0,0,63,4.61Z"/><path class="cls-2" d="M91,52s0,0,0-.07a1,1,0,0,0-.48-1L54.1,30.07a1.23,1.23,0,0,0-.25-.14L36.44,20l-.12,0h0a1.14,1.14,0,0,0-.32-.07h-.12a.87.87,0,0,0-.22.05,1,1,0,0,0-.21.1l-.08.06a1,1,0,0,0-.23.26h0a1,1,0,0,0-.16.49V73.68A.82.82,0,0,0,35,74a1,1,0,0,0,.45,1.07L70.54,95.12a1,1,0,0,0,.44.25L89.57,106a.94.94,0,0,0,.48.13,1,1,0,0,0,.85-.49A.93.93,0,0,0,91,105a.8.8,0,0,0,0-.15Zm-2,9.57L85.9,59.73V50.52l3.18,1.82ZM84,58.61l-4.89-2.79V46.61L84,49.4ZM77.1,54.7l-4.88-2.8V42.69l4.88,2.8ZM70.26,41.59v9.19l-7.45-4.26V37.31l7.46,4.27Zm-9.4-4.88V45.4L54.5,41.77V32.56L61,36.26A1,1,0,0,0,60.86,36.71Zm0,35.57-15.4-8.8V38.85l15.4,8.8ZM52.55,40.65l-7.09-4.06V27.38l7.09,4.06Zm-9-5.18-6.6-3.77V22.49l6.6,3.77ZM36.91,34l6.6,3.78V77.4l-6.6-3.77Zm8.55,31.78,7.09,4V82.57l-7.09-4Zm9,5.17,6.32,3.62h0v12.8L54.5,83.69Zm8.31,17.44V48.77L70.26,53V92.71l-7.47-4.27S62.81,88.37,62.81,88.34Zm9.41-34.18L84,60.87v39.67L72.22,93.83ZM85.9,62l3.18,1.82v39.68l-3.18-1.82Z"/></g></g></svg>