<svg xmlns="http://www.w3.org/2000/svg" viewBox="0 0 125.99 125.99"><defs><style>.cls-1{fill:#fff;}.cls-2{fill:#2c3033;}</style></defs><title>construct</title><g id="Layer_2" data-name="Layer 2"><g id="Layer_5" data-name="Layer 5"><path class="cls-1" d="M63,126a63,63,0,1,1,63-63A63.07,63.07,0,0,1,63,126Z"/><path class="cls-1" d="M63,119.07A56.08,56.08,0,1,1,119.07,63,56.14,56.14,0,0,1,63,119.07Z"/><path class="cls-2" d="M63,9.22A53.78,53.78,0,1,1,9.22,63,53.83,53.83,0,0,1,63,9.22m0-4.61A58.39,58.39,0,1,0,121.38,63,58.38,58.38,0,0,0,63,4.61Z"/><path class="cls-2" d="M48.45,93.6h0V80.32h0s0-.06,0-.1a.76.76,0,0,0-.06-.26.7.7,0,0,0-.1-.16.67.67,0,0,0-.09-.14.87.87,0,0,0-.23-.16l-.07,0h0L37.21,74.8h0l-.17,0a1.42,1.42,0,0,0-.2,0h0a.88.88,0,0,0-.33.06l-.12.08a1.88,1.88,0,0,0-.18.12,1,1,0,0,0-.14.21s-.05,0-.06.09h0a1.13,1.13,0,0,0,0,.18.72.72,0,0,0,0,.19h0V88.9h0v0a.44.44,0,0,0,0,.1,1,1,0,0,0,.05.25.7.7,0,0,0,.1.16.45.45,0,0,0,.1.14,1,1,0,0,0,.2.15l.09.06h0l10.66,4.67h0a.73.73,0,0,0,.3.06l.07,0a1,1,0,0,0,.33-.07l.09,0a.86.86,0,0,0,.2-.13l.07-.06a1.27,1.27,0,0,0,.18-.27h0c0-.06,0-.12,0-.18S48.44,93.66,48.45,93.6ZM37.78,77.11l8.78,3.82V92.15L37.78,88.3Z"/><path class="cls-2" d="M96.52,77.6s-.08-.08-.14-.1l-11-4.8H96.12a1.17,1.17,0,0,0,.74-1.89l-21-18.43a.39.39,0,0,0-.11-.06.5.5,0,0,0-.12-.08l0,0L72,50.67s0-.09-.07-.13L63.29,40.16V22.34a.95.95,0,0,0-1.89,0V40.11l-3.64,4.36L52,42a.89.89,0,0,0-.81,0,.8.8,0,0,0-.34.18L29.56,60.61a13,13,0,0,1-.33.49.94.94,0,0,0,.49,1.24L41,67.23l-11.22,0a.94.94,0,0,0-.94.94.88.88,0,0,0,.06.29,1.07,1.07,0,0,0-.06.3V93.12h0s0,.07,0,.11a1.11,1.11,0,0,0,.05.25l.1.15a.78.78,0,0,0,.1.15.77.77,0,0,0,.21.14.71.71,0,0,0,.09.07h0l24,10.51a1,1,0,0,0,.38.08h42.4a1.23,1.23,0,0,0,1.07-1.06v-25A.94.94,0,0,0,96.52,77.6ZM71.44,83.88h9.45V102.7H71.44Zm11.34-.95a1,1,0,0,0-1-.94H70.49a.94.94,0,0,0-.94.94V102.7H54.43V79.55H95.3V102.7H82.78ZM30.69,69.62l21.85,9.5v23L30.69,92.51ZM80.8,70.81H56.25l19-16.46L94,70.81H80.8Zm-35-3.51h0l-3.41-1.49,15.88-19,15.16,6.59L53.55,70.65ZM62.32,42,68.22,49l-8.65-3.77ZM40.62,65l-8.84-3.84L51.72,43.9,56.5,46Zm12.71,7.6h0a.94.94,0,0,0,.29.06l.08,0H80.6l11.41,5H53.92L34.34,69.14l10.94,0Z"/><path class="cls-2" d="M65,82H57.9a.94.94,0,0,0-.95.94V96.08a.94.94,0,0,0,.95,1H65a1,1,0,0,0,1-1V82.93A1,1,0,0,0,65,82ZM64,83.88V95.14h-5.2V83.88Z"/><path class="cls-2" d="M92.78,82H87.27a.94.94,0,0,0-1,.94V96.08a.94.94,0,0,0,1,1h5.51a.94.94,0,0,0,.94-1V82.93A.94.94,0,0,0,92.78,82Zm-1,1.89V95.14H88.21V83.88Z"/></g></g></svg>