<svg xmlns="http://www.w3.org/2000/svg" viewBox="0 0 125.99 125.99"><defs><style>.cls-1{fill:#fff;}.cls-2{fill:#2c3033;}</style></defs><title>design</title><g id="Layer_2" data-name="Layer 2"><g id="Layer_5" data-name="Layer 5"><circle class="cls-1" cx="62.99" cy="62.99" r="62.99" transform="translate(-26.09 62.99) rotate(-45)"/><circle class="cls-1" cx="62.99" cy="62.99" r="56.08" transform="translate(-26.09 62.99) rotate(-45)"/><path class="cls-2" d="M63,9.22A53.78,53.78,0,1,1,9.22,63,53.83,53.83,0,0,1,63,9.22m0-4.61A58.39,58.39,0,1,0,121.38,63,58.38,58.38,0,0,0,63,4.61Z"/><path class="cls-2" d="M97.19,36.91a8.12,8.12,0,0,0-16.23,0H30a1.16,1.16,0,0,0-1.16,1.16V96A1.16,1.16,0,0,0,30,97.19H89.14a8.06,8.06,0,0,0,8-8s0,0,0,0V36.91Zm-13.91,0a5.8,5.8,0,0,1,11.59,0V83.39A8.29,8.29,0,0,0,93,81.94l-.12,0-.59-.29L92,81.51a4.68,4.68,0,0,0-.48-.18l-.38-.1c-.13,0-.27-.08-.4-.1a4.67,4.67,0,0,0-.52-.08l-.29,0a7.75,7.75,0,0,0-.84,0,8.08,8.08,0,0,0-5.79,2.43V36.91ZM31.12,74H42.66A12.74,12.74,0,0,1,31.12,85.54Zm58,20.87H76.32V82.12A1.16,1.16,0,0,0,75.16,81H67.05V79.8a1.16,1.16,0,0,0-2.32,0v4.64a1.16,1.16,0,0,0,2.32,0V83.28h7V94.87H48.5V83.28h7v1.16a1.16,1.16,0,1,0,2.32,0V79.8a1.16,1.16,0,0,0-2.32,0V81H47.35a1.16,1.16,0,0,0-1.16,1.16V94.87H31.12v-7A15.06,15.06,0,0,0,45,72.85a1.16,1.16,0,0,0-1.16-1.16H31.12V67.05H46.19a1.16,1.16,0,0,0,1.16-1.16V57.78H48.5a1.16,1.16,0,0,0,0-2.32H43.87a1.16,1.16,0,1,0,0,2.32H45v7H31.12V39.23H45v7H43.87a1.16,1.16,0,1,0,0,2.31H48.5a1.16,1.16,0,1,0,0-2.31H47.35v-7h5.79V52a1.16,1.16,0,0,0,1.16,1.16h4.64V54.3a1.16,1.16,0,1,0,2.31,0V49.66a1.16,1.16,0,1,0-2.31,0v1.16H55.46V39.23h19.7V50.82H70.53V49.66a1.16,1.16,0,1,0-2.32,0V54.3a1.16,1.16,0,1,0,2.32,0V53.14h5.79A1.16,1.16,0,0,0,77.48,52V39.23H81V89.07a1.16,1.16,0,1,0,2.32,0,5.8,5.8,0,1,1,5.86,5.8Z"/></g></g></svg>