<svg xmlns="http://www.w3.org/2000/svg" viewBox="0 0 125.99 125.99"><defs><style>.cls-1{fill:#fff;}.cls-2{fill:#2c3033;}</style></defs><title>discuss</title><g id="Layer_2" data-name="Layer 2"><g id="Layer_5" data-name="Layer 5"><circle class="cls-1" cx="62.99" cy="62.99" r="62.99" transform="translate(-26.09 62.99) rotate(-45)"/><circle class="cls-1" cx="62.99" cy="62.99" r="56.08" transform="translate(-26.09 62.99) rotate(-45)"/><path class="cls-2" d="M63,9.22A53.78,53.78,0,1,1,9.22,63,53.83,53.83,0,0,1,63,9.22m0-4.61A58.39,58.39,0,1,0,121.38,63,58.38,58.38,0,0,0,63,4.61Z"/><path class="cls-2" d="M52.4,87.77H50V85a11.78,11.78,0,0,0,5.9-10.2V67.71h0a5.91,5.91,0,0,0-4.72-5.78V58.27A1.18,1.18,0,0,0,50,57.09H43A10.63,10.63,0,0,0,32.34,67.71v7.16A11.8,11.8,0,0,0,38.24,85v2.78H35.88a7.08,7.08,0,0,0-7.08,7.08v3.54a2.36,2.36,0,0,0,2.36,2.36h26a2.36,2.36,0,0,0,2.36-2.36V94.85A7.09,7.09,0,0,0,52.4,87.77ZM43,59.45h5.9V63A1.17,1.17,0,0,0,50,64.17a3.55,3.55,0,0,1,3.54,3.54h0v1.35l-1.7-1.15-.17-.06-.18-.08-.26,0h-.19a1.25,1.25,0,0,0-.26.07l-.12,0a14.94,14.94,0,0,1-6,1.06,26.29,26.29,0,0,1-7.3-1.12h-.08a1.74,1.74,0,0,0-.45,0,1.66,1.66,0,0,0-.21.06.88.88,0,0,0-.22.1l-.07,0-1.7,1.15V67.71A8.27,8.27,0,0,1,43,59.45ZM34.7,74.79V71.91l2.56-1.73a28.46,28.46,0,0,0,7.47,1.07,18.23,18.23,0,0,0,6.35-1l2.5,1.69v2.88a9.44,9.44,0,0,1-18.88,0Zm9.44,11.8a11.86,11.86,0,0,0,3.54-.54v2.17l-1.18.59-1.83-.92-.08,0a1.05,1.05,0,0,0-.24-.06,1.52,1.52,0,0,0-.21,0,1.81,1.81,0,0,0-.23,0,1.66,1.66,0,0,0-.21.06l-.09,0-1.83.92-1.18-.59V86.05A11.81,11.81,0,0,0,44.14,86.59Zm-8.26,3.54h3.26l2.11,1.06h0a1.29,1.29,0,0,0,.47.11h0a1.45,1.45,0,0,0,.29,0l.1,0a.39.39,0,0,0,.14,0l1.83-.91,1.83.92H46a1.29,1.29,0,0,0,.47.11h0a1.45,1.45,0,0,0,.29,0l.1,0a.35.35,0,0,0,.13,0l2.11-1.05H52.4a4.73,4.73,0,0,1,4.72,4.72v3.54h-26V94.85A4.73,4.73,0,0,1,35.88,90.13Z"/><path class="cls-2" d="M90.11,87.77H87.75V85a11.78,11.78,0,0,0,5.9-10.2h0V69.48A12.32,12.32,0,0,0,91.13,62a.64.64,0,0,0-.1-.13,12.37,12.37,0,0,0-22.16,7.58.8.8,0,0,0,0,.15.87.87,0,0,0,0,.22,1,1,0,0,0,.09.21l.12.17a.91.91,0,0,0,.17.17,1.08,1.08,0,0,0,.18.11.92.92,0,0,0,.23.09l.13.05.18,0v4.07s0,0,0,0a0,0,0,0,1,0,0A11.78,11.78,0,0,0,76,85v2.78H73.59a7.09,7.09,0,0,0-7.08,7.08v3.54a2.36,2.36,0,0,0,2.36,2.36h26a2.36,2.36,0,0,0,2.36-2.36V94.85A7.09,7.09,0,0,0,90.11,87.77Zm1-20a6.42,6.42,0,0,0-2.37-1.29l1.3-1.82A9.89,9.89,0,0,1,91.13,67.79Zm-9.87-8.34a10,10,0,0,1,7.34,3.22l-2.71,3.77a21.89,21.89,0,0,0-2.66.74,25,25,0,0,1-11.94,1.26A10,10,0,0,1,81.26,59.45ZM72.41,74.79V71A26.83,26.83,0,0,0,84,69.43c3.34-1.08,4.65-1.49,7.34,1.9v3.46h0a9.44,9.44,0,0,1-18.88,0Zm9.44,11.8a11.86,11.86,0,0,0,3.54-.54v2.17l-1.18.59-1.83-.92-.08,0a1.05,1.05,0,0,0-.24-.06,1.52,1.52,0,0,0-.21,0l-.23,0a1.66,1.66,0,0,0-.21.06l-.09,0-1.83.92-1.18-.59V86.05A11.86,11.86,0,0,0,81.85,86.59Zm-8.26,3.54h3.26L79,91.19H79a1.2,1.2,0,0,0,.47.11h0a1.35,1.35,0,0,0,.29,0l.1,0a.39.39,0,0,0,.14,0l1.83-.91,1.83.92h.06a1.2,1.2,0,0,0,.46.11h0a1.35,1.35,0,0,0,.29,0l.1,0a.39.39,0,0,0,.14,0l2.11-1.05h3.26a4.73,4.73,0,0,1,4.72,4.72v3.54h-26V94.85A4.73,4.73,0,0,1,73.59,90.13Z"/><path class="cls-2" d="M41.78,48.84h2.36V50a1.16,1.16,0,0,0,.52,1,1.13,1.13,0,0,0,.66.21,1.15,1.15,0,0,0,.44-.09l5.68-2.27h3.29v3.54a1.17,1.17,0,0,0,1.18,1.17H69.84l5.69,2.28a1.11,1.11,0,0,0,.44.08,1.19,1.19,0,0,0,.66-.2,1.16,1.16,0,0,0,.52-1V53.55h7.08a1.17,1.17,0,0,0,1.18-1.17v-26a1.18,1.18,0,0,0-1.18-1.18H55.91a1.18,1.18,0,0,0-1.18,1.18V30H41.78a1.18,1.18,0,0,0-1.18,1.18V47.66A1.18,1.18,0,0,0,41.78,48.84ZM83.05,27.6V51.2H76a1.18,1.18,0,0,0-1.18,1.18V53l-4.28-1.71a1.11,1.11,0,0,0-.44-.08h-13V47.76a.54.54,0,0,0,0-.1.45.45,0,0,0,0-.11V31.24a.29.29,0,0,0,0-.1.45.45,0,0,0,0-.11V27.6ZM43,32.32H54.73V46.48H51.22a1.11,1.11,0,0,0-.44.08L46.5,48.27v-.61a1.18,1.18,0,0,0-1.18-1.18H43Z"/><path class="cls-2" d="M61.81,39.4a1.18,1.18,0,0,0,.69-.22l.49-.36V45.3a1.18,1.18,0,0,0,0,2.36H77.15a1.18,1.18,0,0,0,0-2.36V38.82l.5.36a1.13,1.13,0,0,0,.68.22,1.19,1.19,0,0,0,1-.5A1.17,1.17,0,0,0,79,37.26l-8.26-5.9,0,0a.94.94,0,0,0-.23-.1l-.19-.08a1.61,1.61,0,0,0-.22,0,.87.87,0,0,0-.23,0,.62.62,0,0,0-.19.07,1.22,1.22,0,0,0-.24.1l0,0-4,2.88V32.32a1.18,1.18,0,1,0-2.36,0v3.6l-1.86,1.34a1.18,1.18,0,0,0-.28,1.64A1.2,1.2,0,0,0,61.81,39.4Zm8.26-5.63,4.72,3.37V45.3H71.25V42.94a1.18,1.18,0,0,0-2.36,0V45.3H65.35V37.14Z"/></g></g></svg>